<?xml version="1.0" encoding="UTF-8"?>
<svg width="64" height="43.207" version="1.1" viewBox="0 0 16.933 11.432" xmlns="http://www.w3.org/2000/svg">
 <g transform="translate(-238.18 -140.34)">
  <g transform="matrix(.016364 0 0 -.016364 91.429 271.11)">
   <g transform="matrix(.64679 0 0 -.64679 9360 8235.9)">
    <g transform="matrix(5.0866 0 0 5.3455 -763.07 2222)" image-rendering="auto">
     <path d="m196.58-344.65c-5.6005-0.018-14.074-3e-3 -33.326 0.0391-26.685 0.23157-40.333 1.0171-48.373 5.8613-19.331 20.276-26.431 36.495-29.834 42.471 8.2633-9.8521 20.449-31.19 35.141-42.293 8.7674-0.0149 118.8 0.66388 138.34 0.54297 6.3606 2.5335 27.708 38.555 27.201 35.994-2.6545-13.399-24.592-38.379-26.199-39.084-10.249-4.4977-34.417-3.2237-46.859-3.3711-7.7628-0.0919-10.489-0.14218-16.09-0.16016zm-112.53 34.219c-1.3322 0.1805-2.1975 0.32738-3.3535 0.48438-5.1435 0.6274-11.361 1.4183-14.858 5.0859-1.0621 1.2661-2.7624 4.452-2.0429 4.543 2.16 0.27319 7.6013 0.95643 12.504 1.0215 5.9026-0.49635 6.1723-5.5373 7.75-11.135zm209.96 1.1289c-0.9123 3.3467-1.4671 4.607-0.9238 7.3652 1.5049 5.6162 8.1805 3.3857 17.764 2.8594 7.3313-0.21781 5.7684-0.36893 4.6289-3.3066-1.5-3.8669-9.5515-5.1143-21.469-6.918zm-6.9004 9.8496c-0.8247 3.6492-1.9901 2.4949-2.0312 5.5879-14.763-2.4167-41.259-3.7627-57.986-3.8555-57.526-1.5601-104.05 0.70796-138.41 4.8945l-3.875-2.9961c-0.9757 5.2891-1.566 4.0306-5.3886 5.1465-2.5472 2.1531-4.6874 5.3896-8.0293 6.3125-13.227 4.7071-19.905 6.2392-28.139 14.654l0.1387 1.4062c20.899 8.1504 42.033 9.0563 63.947 13.404 2.913 0.581 150.77 0.72026 162.85 0.18945 16.856-3.103 36.528-7.363 56.906-11.477 4.5006-0.93138 7.0553-1.3066 9.5372-1.9844-2.455-4.3284-12.369-12.241-24.402-14.637-9.111-2.1193-9.7297-5.4115-15.703-8.1992-4.4786-0.91298-5.5181-0.82092-8.7852-4.1016-0.2117-1.48 0.2086-0.10603-0.6289-4.3457zm-244.02 30.059c-2.142 0.585-7.4513 23.124-8.3867 27.119-2.1103 14.296-2.8426 16.936-2.1679 35.877 4.7911 0.6882 26.913 3.3676 31 4 6.258 1.076 13 2 18 6 8 7 11.53 20.504 15 28 0 2-1 3-5 4-8.958 0.757-19.996-0.39801-29.322-1.4356-7.8697-0.87549-18.063-4.056-23.678-5.5644-7-2-7.0005-14.999-7.0567-11.486-0.1367 8.5389 2.205 25.56 8.7442 29.912 6.4761 3.018 14.64 4.8213 21.926 5.541 27.58 4.4404 143.75 4.7902 213.59 2.2559 10.993-0.62747 18.926-0.30542 26.869-1.6641 11.616-1.9944 27.589-4.3391 37.406-9.4219 4.0174-7.1169 4.315-16.094 4.6757-23.635-0.081 0.84817-1.4946 4.5371-1.6464 6.3418-4.5489 1.518-23.734 4.9226-34.918 6.3613-6.24 0.83691-13.785 1.7992-24.734 2.832-3.6993 7e-3 -4.5033-1.5572-4.4883-2.5312 4.2767-10.161 4.7229-10.012 7.6172-15.125 8.8851-13.328 8.7067-15.451 15.068-18.416 8.8614-2.0099 28.123-5.6038 35.582-7.1484 3.7457-0.37155 5.9621-0.40008 7.334-0.29492 0.181-17.719-0.026-17.626-1.7852-29.926l-6.0878-30.357c-0.4359 0.23157-0.5237 0.0727-1 0.34375 1.6953 9.0478 3.8073 17.715 5.2207 25.496-14.742 3.559-35.822 6.2303-47.316 8.8184-5.7207 19.083-11.469 36.621-17.367 52.615-4.028 10.934-6.1865 12.412-18.896 12.93-33.126 1.35-131.61 1.3326-143.04-0.0254-6.999-0.832-9.4852-3.4827-13.369-14.264-0.415-1.152-1.3511-3.6488-2.0801-5.5488-5.6709-14.573-11.053-30.788-13.797-44.385-13.771-2.225-42.762-7.7846-48.465-9.9375 0.079-0.126 0.1961-0.67013 0.5-1.9062-0.8065-0.86012 7.6621-23.208 6.0703-25.371z" fill="#e4e4e4" stroke="#191919"/>
     <path d="m250.34-339.19-130.18 0.42187c-13.98 10.289-23.28 26.438-35.221 43.053 1.7973 1.3334 2.6255 2.1758 3.8848 2.9629 24.955-3.2368 68.492-5.2388 92.086-5.2559 15.069-0.0109 34.17 0.0285 53.393 0.54492 16.989 0.45644 38.316 1.8663 50.939 3.8047 0.4199-3.107 1.8-2.4052 1.9688-5.75-5.3341-9.4118-12.235-19.988-18.912-28.699-1.904-2.453-3.9381-4.7568-6.4121-7.2598l-3.0156-3.0527-2.3887-0.14258c-1.313-0.079-4.0766-0.36095-6.1406-0.62695zm-4.0312 1.6074c0.965-0.0374 2.6156 0.35048 4.3672 0.64453 2.044 0.347 4.0557 0.80362 4.4687 1.0156 0.413 0.213 1.2636 0.63926 1.8906 0.94726 6.1083 5.4634 19.05 28.421 19.494 33.318 0.118 4.47-1.9708 4.0026-4.711 1.0254-9.4332-11.239-8.0286-16.769-16.781-27.195-1.5182-3.7036-1.687-4.2761-6.5332-4.7266l-1.2715-1.6816c-2.2704-2.5499-2.1647-3.2995-0.9238-3.3477zm-127.25 3.1074 2.9414 5.4688s-4.4354 6.0836-4.666 6.3691c-4.1624 5.154-9.3469 12.402-11.75 20.354-0.99 3.373-8.0143 3.5308-9.0703 3.6328 5.2787-7.2565 17.713-31.626 22.545-35.824zm7.2383 9.5195c0.161 0 0.38414 0.48136 0.49414 1.0684-1.4102 3.59-6.7663 24.163-8.7617 24.512-1.996 0.35-2.6523-0.14937-1.9473-1.4844 3.2342-7.9622 5.1832-17.85 10.215-24.096zm124.56 0.94141c0.2093-0.0113 0.4802 0.37633 0.9277 1.2363 1.3435 2.565 10.908 22.922 8.0528 23.297-4.1323-3.5066-8.8778-18.797-9.3164-24.1 0.1065-0.27787 0.2103-0.42679 0.3359-0.43359zm-166.58 13.598c-0.13588-0.0147-0.26004 0.0765-0.36329 0.29102-0.82597 1.7164-1.0281 7.0756-4.3047 9.6992s-11.95-0.0553-15.945 0.10547l-0.56445 3.7422c0.0989 3.3378 2.5532 4.5285 4.5918 5.1289 3.9468 0.67048 7.9723 1.3098 11.842 0.92578 0.22275-0.22225 1.2776-0.47567 2.3476-0.5625 3.736-0.30317 2.5583-5.3217 3.6035-9.2285 1.2562-4.6952-0.25593-9.9987-1.207-10.102zm209.63 1.1738c-4.9287 1.6405-6.4742 7.1496-6.6797 9.7852l0.5586 4.2754c1.8739 2.6966 4.6907 4.0439 10.209 4.3027 2.878 0.027 7.4898-0.27725 9.0938-1.0312 5.4287-2.4111 6.778-2.5469 9.3964-7.7148-13.25 0.92676-18.736 2.2229-21.523 0.16602-4.2279-3.1194 0.2891-10.23-1.0547-9.7832zm-250.38 41.025-0.16016 1.3555c15.52 4.5238 39.301 8.8492 55.449 12.277 3.3403 0.7091-8.2728 21.185-14.188 20.205-32.027-5.305-33.421-6.1203-47.518-9.6621-0.33765-0.0848-2.7803 1.2636-2.1953 1.4863 13.014 4.9563 44.975 9.5565 50.146 10.5 0.75714 3.1124 2.1924 10.64 3.9277 16.035 4.6628 14.497 7.9614 23.71 12.668 36.184 1.5941 4.2249 4.2861 11.442 12.074 11.869 11.304 1.233 120.74 1.5691 143.67 0.96094 12.429-0.32967 17.045-7.0176 17.045-7.0176s13.411-39.178 19.188-59.328c2.42-1.1577 34.129-5.2498 47.424-8.8867-0.1567-0.28355-0.2608-0.47757-0.3809-0.7168-6.6923 1.1468-46.102 7.5948-47.402 6.9941-1.413-5.2262-13.848-15.395-16.07-17.709 5.9427-2.1176 52.973-11.904 58.67-13.316 0.037-0.43322-0.1292-0.54401-0.086-0.85742-7.395 1.3482-57.981 11.611-65.475 13.211-2.139 0.575-157.67-0.27566-162.85-0.18946-6.5076-1.4872-41.504-6.4418-54.938-10.344-8.3762-2.433-5.4818-1.7629-8.9941-3.0508zm67.213 18.098 43.312 0.125c-0.41868-0.27164 13.076 0.93459-1.1367 1.4512-7.0041 0.25457-37.912-0.30664-40.664 0.72656-4.336 1.6279-16.865 17.647-16.865 21.939 0 2.126 1.2042 8.8146 1.7812 9.8926 4.3196 13.746 7.2452 28.452 12.797 39.123 0.486 0.888 0.57278 1.7559 0.17578 1.7559-5.7453-9.3301-8.7206-21.783-11.736-31.291-0.812-2.557-1.4516-4.7528-2.5586-8.7988-0.659-2.409-0.978-3.7496-1.5-6.3066-0.68399-3.82-0.61244-4.8662-0.5625-5.5742 0.0768-1.0895-3e-3 -2.1904 0.94922-4.3359 1.306-2.9411 14.597-17.554 16.008-18.707zm141.68 0.0918c4.0857 4e-3 7.2055 0.0373 8.2793 0.11132 3.511 0.241 6.1562 0.77424 6.1562 1.2402 6.8588 4.9497 12.003 11.084 16.695 18.191 1.7034 4.6973-0.097 8.8228-0.9629 13.037-0.928 5.126-7.5383 29.118-9.8243 31.35-2.2859 2.2316-0.7772-1.375-0.5703-2.1562 0.7208-2.7218 3.941-11.549 4.9004-14.514 0.9876-3.0519 1.6571-4.9282 2.4121-8.8242 1.5176-7.5816 4.4724-16.257 0.377-21.621-3.7057-4.763-7.9459-9.3718-11.525-12.979-2.0635-1.385-3.9104-2.1048-8.4004-2.2598-5.949 0.4535-51.051 0.48928-41.256-1.2656 0.50804-0.0887 21.462-0.32363 33.719-0.31054zm-144.92 8.0312c16.491 0.25197 43.625 1.8785 53.947 1.5391l-0.16602 1.4199c-7.519 0.3117-42.051-0.24496-54.637-1.0723-0.615-0.19201-0.0275-1.4887 0.85547-1.8867zm161.05 0.2207c0.984 0.526 3.2729 1.453 2.1309 1.627-3.122 0.473-51.261 1.0722-52.912 0.65821-0.498-0.125-0.76562-0.39816-0.76562-0.78516zm-167.89 11.455 57.117 1.7539c2.7467 0.23145 3.2697 0.27338 4.6895 1.5859-4.578-0.296-56.811-0.85684-60.807-1.3398-1.455-0.176-1.784-1.118-1-2zm174.9 0.49218 3.4043 1.9922c-4.867 0.584-63.164 1.4183-63.164 0.9043 0-1.869 1.9692-1.2717 5.5332-1.5527 18.448 0.67823 39.675-0.93167 54.227-1.3438zm-176.88 13.395 177.3 0.24609c1.0806 0.55456 0.1883 2.3374-4.5801 2.1562-9.3057-0.35351-123.55-0.20533-170.88-0.3457-1.208-0.8215-1.8457-0.98364-1.8457-2.0566zm243.65 8.5586c-1.9803 3e-3 -3.18 0.18962-5.0625 0.37891-4.2076 0.84907-24.417 4.2489-35.42 7.0547-2.256 0.99655-3.7929 1.7112-6.0234 4.4844-3.2434 4.0325-16.978 25.389-16.84 29.6 0.1021 3.111 2.7646 2.1348 4.666 2.0371 2.0747-0.1066 51.581-1.3478 59.373-9.1641 1.8754-1.8813 1.4568-4.9402 1.8984-8.5606 0.9833-8.0609 0.6327-18.91-0.2969-25.766-0.8877-0.0469-1.6348-0.0653-2.2949-0.0645zm-309.68 1.5547c-0.54525 7.0214-0.82399 17.205-1 23 0 3 0 10 7 12 17.629 5.8106 39.495 8.6361 53 7 4-1 5-2 5-4-4.4935-9.9951-7-21-15-28-5-4-12-5-18-6zm69.684 1.9004c57.795 2.0071 152.98 1.6001 171.58 1.2207 1.3157-0.0833-0.9204 3.0028-1.6523 2.293l-167.57-0.39844c-1.4504-1.4927-0.9142-0.55197-2.3613-3.1152zm236.93 3.1133c1.4845 0.6095-4.269 3.0138-7.168 3.5918-12.847 1.6414-19.95 4.0368-32.549 5.7734-1.9329 0.24709 1.8921-2.2284 3.4257-2.6562zm-302.13 1.3828c0.29034 5e-3 0.67854 0.0583 1.1855 0.16992 5.5293 0.86257 36.884 5.1118 40.758 7.0215 1.741 1.729 3.6554 2.0272-2.4531 1.7226-6.4776-1.4337-30.365-3.1192-38.217-5.4473-0.53375-1.1664-3.3059-3.5-1.2734-3.4668zm68.963 6.2266c58.993 1.8573 104.12 2.1915 164.34 1.0098l-0.1348 2.0781c-54.029 1.2642-142.29-0.88102-162.36-0.57422-0.7467-0.89855-1.0434-1.555-1.8457-2.5137zm232.68 3.9395c2.692 0.977-10 4.2495-11.471 5.4492l-35.783 2.8223c-2.0154 0.2435 0.9911-1.1762 3.6172-2.4219s32.724-5.0076 43.637-5.8496zm-301.31 2.3476c0.39132 0.0196 0.86384 0.0709 1.4336 0.16211l49.266 6.998c2.221 0.216 0.92573 1.852-8.4473 1.9785-17.318-1.7903-27.972-4.6444-43.203-7.2695-0.5005-0.5635-1.7881-2.0061 0.95117-1.8691zm71.926 4.5254 157.56 1.0352c1.5896 0.0769 1.3606 0.7384-0.8652 1.707-13.097 0.0463-148.8-0.45218-155.47-0.67773-0.76313-1.4997-0.52007-0.42531-1.2266-2.0645zm160.87 0.51954c0.1911-3e-3 0.3809 0.15767 0.4141 0.48242 0.066 0.64953 0 1.4607-0.1562 1.8027-3.433 7.698-7.1073 7.8138-11.178 8.873-1.8162 0.29125-13.85 0.64311-20.27 0.74805-5.6155 0.088-15.616 0.31014-22.223 0.49414-13.15 0.366-85.902 0.15656-94.895-0.27344-2.1216 0.0277-10.484-1.5685-11.18-3.877 0.227 0 0.76581 0.41796 1.1582 0.52343 3.163 0.85016 19.818 2.6608 82.844 2.6758 62.594 0.015 70.181-3.2504 71.623-4.4238 1.2703-1.0332 3.3645-5.8619 3.4395-6.5254 0.038-0.33175 0.2308-0.49743 0.4218-0.5zm68.367 0.93945c1.7789-0.11905-2.7698 4.0932-4.9238 4.748-2.2976 0.69849-37.442 4.2086-43.191 4.9453s-4.6387-0.98567-2.7637-1.8242l50.438-7.7852c0.1774-0.0488 0.3228-0.076 0.4414-0.084zm-301.41 1.8574c0.0847-7e-3 0.18041-2e-3 0.28711 0.0156l53.76 8.1992c0.3915 1.975-6.2637 1.9409-9.6387 1.6914-12.711-1.7982-27.543-2.3054-42.707-7.2754-1.8263 0.0625-2.9718-2.5327-1.7012-2.6309zm-2.3008 11.826c0.0505 0.28336 0.29794 1.0195 0.44336 1.4551 8.7795 2.8602 34.854 14.742 51.291 14.967 5.6489-0.18897 17.008-1.2111 25.691-0.81055s131.15-0.50065 149.4-0.30078c18.226 0.19966 25.985 0.0796 29.746 0.11523 3.8031 0.0361 4.0427 0.57861 13.129-1.6387 9.0861-2.2173 23.973-6.009 37.201-10.15 0.8985-0.28128 1.074-1.4399-0.166-1.2148-12.797 2.323-29.982 8.0617-37.867 9.5801-7.8847 1.5184-5.6943 1.0557-6.8828 1.0566s-2.3375-0.0961-6.2656-1.375c-3.9281-1.2789-9.8993-2.7468-14.93-4.7812-5.0304-2.0345-3.5469-1.9845-36.336-1.7305-33.01 0.256-113.38 0.30866-118.92 0.0781l-8.4082 0.0977c-4.044 0.21-7.9108 0.326-10.391 1.0742-9.9953 3.0158-9.653 3.0794-13.852 5.2695-4.1986 2.1901-6.8999 2.1286-10.818 1.373s-9.355-1.6037-11.486-2.0039c-2.1314-0.40025-30.629-11.347-30.578-11.061z" fill="#21024c"/>
     <path d="m333.78-264.94c-0.2105 0.0137-0.4275 0.10092-0.6524 0.26953-0.893 0.72101-1.187 2.1977-0.375 1.8867 1.8895 4.2026 4.08 9.5147 4.1758 13.475-0.4366 1.6838 2.8244 9.5908 2.4688 5.1738-0.8877-4.7232-2.4599-21.01-5.6172-20.805zm-3.9766 0.9961c-0.5365 0.0101-1.1426 0.13462-1.707 0.39843-14.946 4.7339-31.196 8.7128-46.617 10.184-1.485 7e-3 -1.876 0.37373-1.125 1.0527 8.0459 1.2477 19.358-0.18617 26.721-3.5742 4.1713-0.62455 24.027-3.4291 24.324-7.2832 0-0.49437-0.7015-0.79417-1.5957-0.77734zm-281.98 0.33203c-0.9714-0.0541-1.4102 0.29211-1.4102 1.0527 0 1.071 2.7675 2.8867 4.3985 2.8867 0.349 0 0.8018 0.20317 1.0078 0.45117 0.205 0.248 0.6788 0.44922 1.0508 0.44922s1.2207 0.19274 1.8867 0.42774c0.667 0.235 2.7442 0.71922 4.6172 1.0742 3.721 0.706 7.7617 1.7833 7.7597 2.0703-1e-3 0.1-0.4063 0.7902-0.9003 1.5332-0.494 0.744-0.8985 1.5433-0.8985 1.7774 0 0.47-0.2116 0.72873-2.2676 2.8027-0.777 0.784-1.5317 1.4258-1.6757 1.4258-0.145 0-0.2637 0.20317-0.2637 0.45117s-0.1861 0.44922-0.4141 0.44922c-0.227 0-0.5773 0.20036-0.7793 0.44336-0.383 0.462-1.7437 0.42491-4.5117-0.12109-0.743-0.146-2.1224-0.40617-3.0644-0.57617-0.942-0.17101-1.9683-0.44724-2.2813-0.61524-0.395-0.211-0.6712-0.19984-0.9062 0.0352-0.25 0.251-0.5384 0.24733-1.1114-0.0137-1.218-0.555-1.8571-0.42079-2.5371 0.53321-1.095 1.539-0.6284 2.2869 1.4336 2.2969 0.941 5e-3 2.7903 0.174 4.1113 0.375 2.247 0.342 3.992 0.60424 7.418 1.1152l1.4121 0.21094 2.5684-2.5898c1.412-1.425 2.5664-2.7845 2.5664-3.0215s0.169-0.61013 0.375-0.82813c0.207-0.218 0.769-0.93665 1.25-1.5976 0.784-1.076 1.9869-2.309 3.2949-3.377 0.605-0.494 1.8438-0.47059 3.3848 0.0664 0.686 0.239 2.1727 0.52672 3.3027 0.63672 1.131 0.11 2.5114 0.38533 3.0684 0.61133s1.6725 0.41015 2.4785 0.41015c0.858 0 1.4648 0.13613 1.4648 0.32813 0 0.202 0.5468 0.299 1.4258 0.25 1.31-0.073 2.5307 0.10692 3.6797 0.54492 1.176 0.449 6.0986 0.51189 6.8906 0.0879 0.317-0.17 0.918-0.30859 1.336-0.30859 0.926 0 1.6363-1.0403 0.9023-1.3223-0.258-0.099-0.9663-0.18159-1.5723-0.18359-1.091-4e-3 -6.9723-1.1888-11.611-2.3398-1.322-0.327-3.1467-0.74192-4.0547-0.91992-0.909-0.178-3.0023-0.6157-4.6543-0.9707-3.453-0.742-4.7516-1.0118-7.0566-1.4648-3.441-0.678-6.1877-1.2685-7.0567-1.5195-1.009-0.293-6.7793-1.4658-8.8593-1.8008-0.743-0.119-2.0275-0.43322-2.8535-0.69922-0.9863-0.318-1.761-0.4949-2.3438-0.52734zm283.99 3.8945c-0.1914 0.02-0.3974 0.1435-0.6211 0.36719-0.205 0.205-0.2369 0.72578-0.086 1.4258 0.6629 2.0923 0.2828 5.8609 1.6074 6.9609 0.931 0 1.1526-0.63746 0.9336-2.6895-0.4558-4.2762-1.0045-6.1512-1.834-6.0644zm-286.15 0.50781c-0.1929 0.0227-0.393 0.11758-0.5742 0.29883-0.984 0.984-1.319 7.4698-0.416 8.0508 0.868 0.558 1.176-0.13978 1.459-3.3008 0.146-1.627 0.3481-3.3188 0.4511-3.7578 0.1823-0.78525-0.3411-1.3591-0.9199-1.291zm263.34 3.7774c-0.1766 5e-3 -0.223 0.14668-0.332 0.42968-0.102 0.268 0.1109 0.77346 0.5019 1.1895 1.7069 2.9342 4.185 5.102 6.4356 7.9297 1.429 1.81 2.4204 2.2834 4.1504 1.9844 3.8062-0.46143 7.8987-1.2043 11.248-1.8574 1.247-0.23 1.5815-1.1392 0.7305-1.9902-4.3159-2.4723-11.746 3.783-14.182 0.34961-2.6825-2.4464-4.4816-5.6552-7.4394-7.6445-0.6295-0.263-0.9367-0.39537-1.1133-0.39062zm-215.79 5.0898c-0.4421 0.0253-0.7539 0.36945-1.0508 1.0801-0.463 1.106-4.9642 5.783-5.6172 5.834-2.783 0.217-5.997-0.13986-12.457-1.3809-1.374-0.264-4.1262-0.50606-6.1172-0.53906l-3.6191-0.0586-0.6329 0.83984c-0.485 0.643-0.5439 0.89422-0.2539 1.0742 0.209 0.129 0.2935 0.46033 0.1875 0.73633-0.149 0.388-0.02 0.50195 0.5703 0.50195 0.4191 0 1.1444 0.14713 1.6094 0.32813 0.465 0.18 1.9925 0.37373 3.3965 0.42773 3.783 0.147 7.8505 0.63664 8.7695 1.0566 0.576 0.264 1.1372 0.28703 1.9512 0.082 0.809-0.203 1.5815-0.17348 2.6445 0.10352 3.035 0.791 4.8094-0.17396 7.8165-4.252 0.487-0.66 1.6642-1.9976 2.6152-2.9726 1.915-1.964 1.9854-2.1243 1.1484-2.5723-0.384-0.20512-0.6957-0.30422-0.9609-0.28906zm191.4 0.5625c-0.2283-8e-3 -0.3907 0.10661-0.5215 0.31836-0.293 0.474 1.7418 2.8634 5.8438 6.8594l2.2656 2.207c7.5423-0.47279 15.345-1.976 21.756-2.7852 2.3293-0.63927-0.943-2.5697-2.0488-2.3633-7.1537 0.7634-13.163 2.2067-19.564 2.7617l-2.9238-2.9727c-2.838-2.883-4.1218-4.0028-4.8067-4.0254zm-220.75 9.3184c-0.8159-3e-3 -1.5366 0.15737-1.6621 0.48437-0.273 0.711-0.2591 0.72533 0.7929 0.73633 0.537 6e-3 1.3136 0.20346 1.7266 0.43946 0.991 0.567 5.8149 0.63021 5.6309 0.0742-0.069-0.209-0.8744-0.45559-1.8164-0.55859-0.932-0.101-2.0314-0.40578-2.4434-0.67578-0.503-0.3295-1.4126-0.49663-2.2285-0.5z" fill="#fcff56" stroke="#ece109"/>
     <path d="m250.34-339.19-130.18 0.42187c-13.98 10.289-23.28 26.438-35.221 43.053 1.7973 1.3334 2.6255 2.1758 3.8848 2.9629 24.955-3.2368 68.492-5.2388 92.086-5.2559 15.069-0.0109 34.17 0.0285 53.393 0.54492 16.989 0.45644 38.316 1.8663 50.939 3.8047 0.4199-3.107 1.8-2.4052 1.9688-5.75-5.3341-9.4118-12.235-19.988-18.912-28.699-1.904-2.453-3.9381-4.7568-6.4121-7.2598l-3.0156-3.0527-2.3887-0.14258c-1.313-0.079-4.0766-0.36095-6.1406-0.62695zm-4.0312 1.6074c0.965-0.0374 2.6156 0.35048 4.3672 0.64453 2.044 0.347 4.0557 0.80362 4.4687 1.0156 0.413 0.213 1.2636 0.63926 1.8906 0.94726 6.1083 5.4634 19.05 28.421 19.494 33.318 0.118 4.47-1.9708 4.0026-4.711 1.0254-9.4332-11.239-8.0286-16.769-16.781-27.195-1.5182-3.7036-1.687-4.2761-6.5332-4.7266l-1.2715-1.6816c-2.2704-2.5499-2.1647-3.2995-0.9238-3.3477zm-127.25 3.1074 2.9414 5.4688s-4.4354 6.0836-4.666 6.3691c-4.1624 5.154-9.3469 12.402-11.75 20.354-0.99 3.373-8.0143 3.5308-9.0703 3.6328 5.2787-7.2565 17.713-31.626 22.545-35.824zm7.2383 9.5195c0.161 0 0.38414 0.48136 0.49414 1.0684-1.4102 3.59-6.7663 24.163-8.7617 24.512-1.996 0.35-2.6523-0.14937-1.9473-1.4844 3.2342-7.9622 5.1832-17.85 10.215-24.096zm124.56 0.94141c0.2093-0.0113 0.4802 0.37633 0.9277 1.2363 1.3435 2.565 10.908 22.922 8.0528 23.297-4.1323-3.5066-8.8778-18.797-9.3164-24.1 0.1065-0.27787 0.2103-0.42679 0.3359-0.43359zm-166.58 13.598c-0.13588-0.0147-0.26004 0.0765-0.36329 0.29102-0.82597 1.7164-1.0281 7.0756-4.3047 9.6992s-11.95-0.0553-15.945 0.10547l-0.56445 3.7422c0.0989 3.3378 2.5532 4.5285 4.5918 5.1289 3.9468 0.67048 7.9723 1.3098 11.842 0.92578 0.22275-0.22225 1.2776-0.47567 2.3476-0.5625 3.736-0.30317 2.5583-5.3217 3.6035-9.2285 1.2562-4.6952-0.25593-9.9987-1.207-10.102zm209.63 1.1738c-4.9287 1.6405-6.4742 7.1496-6.6797 9.7852l0.5586 4.2754c1.8739 2.6966 4.6907 4.0439 10.209 4.3027 2.878 0.027 7.4898-0.27725 9.0938-1.0312 5.4287-2.4111 6.778-2.5469 9.3964-7.7148-13.25 0.92676-18.736 2.2229-21.523 0.16602-4.2279-3.1194 0.2891-10.23-1.0547-9.7832zm-250.38 41.025-0.16016 1.3555c15.52 4.5238 39.301 8.8492 55.449 12.277 3.3403 0.7091-8.2728 21.185-14.188 20.205-32.027-5.305-33.421-6.1203-47.518-9.6621-0.33765-0.0848-2.7803 1.2636-2.1953 1.4863 13.014 4.9563 44.975 9.5565 50.146 10.5 0.75714 3.1124 2.1924 10.64 3.9277 16.035 4.6628 14.497 7.9614 23.71 12.668 36.184 1.5941 4.2249 4.2861 11.442 12.074 11.869 11.304 1.233 120.74 1.5691 143.67 0.96094 12.429-0.32967 17.045-7.0176 17.045-7.0176s13.411-39.178 19.188-59.328c2.42-1.1577 34.129-5.2498 47.424-8.8867-0.1567-0.28355-0.2608-0.47757-0.3809-0.7168-6.6923 1.1468-46.102 7.5948-47.402 6.9941-1.413-5.2262-13.848-15.395-16.07-17.709 5.9427-2.1176 52.973-11.904 58.67-13.316 0.037-0.43322-0.1292-0.54401-0.086-0.85742-7.395 1.3482-57.981 11.611-65.475 13.211-2.139 0.575-157.67-0.27566-162.85-0.18946-6.5076-1.4872-41.504-6.4418-54.938-10.344-8.3762-2.433-5.4818-1.7629-8.9941-3.0508zm67.213 18.098 43.312 0.125c-0.41868-0.27164 13.076 0.93459-1.1367 1.4512-7.0041 0.25457-37.912-0.30664-40.664 0.72656-4.336 1.6279-16.865 17.647-16.865 21.939 0 2.126 1.2042 8.8146 1.7812 9.8926 4.3196 13.746 7.2452 28.452 12.797 39.123 0.486 0.888 0.57278 1.7559 0.17578 1.7559-5.7453-9.3301-8.7206-21.783-11.736-31.291-0.812-2.557-1.4516-4.7528-2.5586-8.7988-0.659-2.409-0.978-3.7496-1.5-6.3066-0.68399-3.82-0.61244-4.8662-0.5625-5.5742 0.0768-1.0895-3e-3 -2.1904 0.94922-4.3359 1.306-2.9411 14.597-17.554 16.008-18.707zm141.68 0.0918c4.0857 4e-3 7.2055 0.0373 8.2793 0.11132 3.511 0.241 6.1562 0.77424 6.1562 1.2402 6.8588 4.9497 12.003 11.084 16.695 18.191 1.7034 4.6973-0.097 8.8228-0.9629 13.037-0.928 5.126-7.5383 29.118-9.8243 31.35-2.2859 2.2316-0.7772-1.375-0.5703-2.1562 0.7208-2.7218 3.941-11.549 4.9004-14.514 0.9876-3.0519 1.6571-4.9282 2.4121-8.8242 1.5176-7.5816 4.4724-16.257 0.377-21.621-3.7057-4.763-7.9459-9.3718-11.525-12.979-2.0635-1.385-3.9104-2.1048-8.4004-2.2598-5.949 0.4535-51.051 0.48928-41.256-1.2656 0.50804-0.0887 21.462-0.32363 33.719-0.31054zm-144.92 8.0312c16.491 0.25197 43.625 1.8785 53.947 1.5391l-0.16602 1.4199c-7.519 0.3117-42.051-0.24496-54.637-1.0723-0.615-0.19201-0.0275-1.4887 0.85547-1.8867zm161.05 0.2207c0.984 0.526 3.2729 1.453 2.1309 1.627-3.122 0.473-51.261 1.0722-52.912 0.65821-0.498-0.125-0.76562-0.39816-0.76562-0.78516zm-167.89 11.455 57.117 1.7539c2.7467 0.23145 3.2697 0.27338 4.6895 1.5859-4.578-0.296-56.811-0.85684-60.807-1.3398-1.455-0.176-1.784-1.118-1-2zm174.9 0.49218 3.4043 1.9922c-4.867 0.584-63.164 1.4183-63.164 0.9043 0-1.869 1.9692-1.2717 5.5332-1.5527 18.448 0.67823 39.675-0.93167 54.227-1.3438zm-176.88 13.395 177.3 0.24609c1.0806 0.55456 0.1883 2.3374-4.5801 2.1562-9.3057-0.35351-123.55-0.20533-170.88-0.3457-1.208-0.8215-1.8457-0.98364-1.8457-2.0566zm243.65 8.5586c-1.9803 3e-3 -3.18 0.18962-5.0625 0.37891-4.2076 0.84907-24.417 4.2489-35.42 7.0547-2.256 0.99655-3.7929 1.7112-6.0234 4.4844-3.2434 4.0325-16.978 25.389-16.84 29.6 0.1021 3.111 2.7646 2.1348 4.666 2.0371 2.0747-0.1066 51.581-1.3478 59.373-9.1641 1.8754-1.8813 1.4568-4.9402 1.8984-8.5606 0.9833-8.0609 0.6327-18.91-0.2969-25.766-0.8877-0.0469-1.6348-0.0653-2.2949-0.0645zm-309.68 1.5547c-0.54525 7.0214-0.82399 17.205-1 23 0 3 0 10 7 12 17.629 5.8106 39.495 8.6361 53 7 4-1 5-2 5-4-4.4935-9.9951-7-21-15-28-5-4-12-5-18-6zm69.684 1.9004c57.795 2.0071 152.98 1.6001 171.58 1.2207 1.3157-0.0833-0.9204 3.0028-1.6523 2.293l-167.57-0.39844c-1.4504-1.4927-0.9142-0.55197-2.3613-3.1152zm236.93 3.1133c1.4845 0.6095-4.269 3.0138-7.168 3.5918-12.847 1.6414-19.95 4.0368-32.549 5.7734-1.9329 0.24709 1.8921-2.2284 3.4257-2.6562zm-302.13 1.3828c0.29034 5e-3 0.67854 0.0583 1.1855 0.16992 5.5293 0.86257 36.884 5.1118 40.758 7.0215 1.741 1.729 3.6554 2.0272-2.4531 1.7226-6.4776-1.4337-30.365-3.1192-38.217-5.4473-0.53375-1.1664-3.3059-3.5-1.2734-3.4668zm68.963 6.2266c58.993 1.8573 104.12 2.1915 164.34 1.0098l-0.1348 2.0781c-54.029 1.2642-142.29-0.88102-162.36-0.57422-0.7467-0.89855-1.0434-1.555-1.8457-2.5137zm232.68 3.9395c2.692 0.977-10 4.2495-11.471 5.4492l-35.783 2.8223c-2.0154 0.2435 0.9911-1.1762 3.6172-2.4219s32.724-5.0076 43.637-5.8496zm-301.31 2.3476c0.39132 0.0196 0.86384 0.0709 1.4336 0.16211l49.266 6.998c2.221 0.216 0.92573 1.852-8.4473 1.9785-17.318-1.7903-27.972-4.6444-43.203-7.2695-0.5005-0.5635-1.7881-2.0061 0.95117-1.8691zm71.926 4.5254 157.56 1.0352c1.5896 0.0769 1.3606 0.7384-0.8652 1.707-13.097 0.0463-148.8-0.45218-155.47-0.67773-0.76313-1.4997-0.52007-0.42531-1.2266-2.0645zm160.87 0.51954c0.1911-3e-3 0.3809 0.15767 0.4141 0.48242 0.066 0.64953 0 1.4607-0.1562 1.8027-3.433 7.698-7.1073 7.8138-11.178 8.873-1.8162 0.29125-13.85 0.64311-20.27 0.74805-5.6155 0.088-15.616 0.31014-22.223 0.49414-13.15 0.366-85.902 0.15656-94.895-0.27344-2.1216 0.0277-10.484-1.5685-11.18-3.877 0.227 0 0.76581 0.41796 1.1582 0.52343 3.163 0.85016 19.818 2.6608 82.844 2.6758 62.594 0.015 70.181-3.2504 71.623-4.4238 1.2703-1.0332 3.3645-5.8619 3.4395-6.5254 0.038-0.33175 0.2308-0.49743 0.4218-0.5zm68.367 0.93945c1.7789-0.11905-2.7698 4.0932-4.9238 4.748-2.2976 0.69849-37.442 4.2086-43.191 4.9453s-4.6387-0.98567-2.7637-1.8242l50.438-7.7852c0.1774-0.0488 0.3228-0.076 0.4414-0.084zm-301.41 1.8574c0.0847-7e-3 0.18041-2e-3 0.28711 0.0156l53.76 8.1992c0.3915 1.975-6.2637 1.9409-9.6387 1.6914-12.711-1.7982-27.543-2.3054-42.707-7.2754-1.8263 0.0625-2.9718-2.5327-1.7012-2.6309zm-2.3008 11.826c0.0505 0.28336 0.29794 1.0195 0.44336 1.4551 8.7795 2.8602 34.854 14.742 51.291 14.967 5.6489-0.18897 17.008-1.2111 25.691-0.81055s131.15-0.50065 149.4-0.30078c18.226 0.19966 25.985 0.0796 29.746 0.11523 3.8031 0.0361 4.0427 0.57861 13.129-1.6387 9.0861-2.2173 23.973-6.009 37.201-10.15 0.8985-0.28128 1.074-1.4399-0.166-1.2148-12.797 2.323-29.982 8.0617-37.867 9.5801-7.8847 1.5184-5.6943 1.0557-6.8828 1.0566s-2.3375-0.0961-6.2656-1.375c-3.9281-1.2789-9.8993-2.7468-14.93-4.7812-5.0304-2.0345-3.5469-1.9845-36.336-1.7305-33.01 0.256-113.38 0.30866-118.92 0.0781l-8.4082 0.0977c-4.044 0.21-7.9108 0.326-10.391 1.0742-9.9953 3.0158-9.653 3.0794-13.852 5.2695-4.1986 2.1901-6.8999 2.1286-10.818 1.373s-9.355-1.6037-11.486-2.0039c-2.1314-0.40025-30.629-11.347-30.578-11.061z" fill="#21024c"/>
    </g>
   </g>
  </g>
 </g>
</svg>
