<svg xmlns="http://www.w3.org/2000/svg" width="256" height="256"><path fill-opacity=".016" d="M0 128.004v128.004l128.25-.254 128.25-.254.254-127.75L257.008 0H0v128.004m.485.496c0 70.4.119 99.053.265 63.672.146-35.38.146-92.98 0-128C.604 29.153.485 58.1.485 128.5" fill="#1976D2" fill-rule="evenodd"/><path fill-opacity=".067" d="M43.23 1.511c-7.081 1.959-10.06 3.601-16.983 9.363-8.286 6.896-11.496 14.148-12.057 27.239-1.321 30.837 19.165 46.76 52.06 40.466 16.175-3.095 39.266-12.997 56.967-24.429 10.548-6.813 14.482-8.785 15.498-7.768 2.124 2.124-1.074 15.741-6.369 27.118-5.133 11.03-1.948 19.081 7.486 18.921 6.296-.107 13.038-3.289 19.282-9.1 6.572-6.117 8.836-10.988 8.864-19.071.012-3.437.36-6.247.772-6.244.412.004 5.166 2.669 10.563 5.923 11.488 6.927 15.999 8.066 21.401 5.407 5.193-2.556 7.665-7.135 6.756-12.515-.945-5.593-8.92-13.72-15.981-16.286-2.744-.997-7.351-2.85-10.239-4.118-4.63-2.034-5.25-2.656-5.25-5.264 0-2.418.574-3.158 3.149-4.055 4.756-1.658 12.645-1.325 21.351.902 11.693 2.991 17.625 6.066 22.094 11.457 4.564 5.505 7.997 7.543 12.701 7.543 4.868 0 6.707-2.494 6.696-9.079-.029-16.686-21.487-31.339-51.066-34.87-11.68-1.395-23.618-.211-34.413 3.413-8.471 2.844-30.919 12.661-63.036 27.567C63.98 47.72 59.054 48.974 51.5 44.709c-3.37-1.903-4.048-2.831-4.305-5.895-.257-3.068.277-4.219 3.413-7.356 7.225-7.225 16.491-9.879 28.068-8.042 4.819.765 5.363.636 7.862-1.863 2.198-2.198 2.57-3.263 2.05-5.865-.908-4.537-5.517-9.775-11.161-12.684C73.136.793 71.161.474 60.534.277 52.432.126 46.778.529 43.23 1.511M32.764 95.952c-10.797 3.424-16.932 13.504-14.661 24.091C19.989 128.839 28.585 136 37.258 136h4.337l1.221 9.75c2.098 16.758 7.789 24.676 19.647 27.329 6.176 1.382 29.336.688 36.799-1.103 6.146-1.475 13.436-6.411 16.949-11.476 3.16-4.556 5.443-13.463 6.342-24.75l.618-7.75h10.546l.534 10.75c1.177 23.686 9.34 32.436 32.974 35.345 11.833 1.456 25.322.643 30.977-1.867 9.371-4.159 14.14-12.899 15.421-28.26l.646-7.747 5.871-.425c17.543-1.269 25.091-22.192 12.406-34.391-8.571-8.243-19.094-7.952-27.816.77L199.905 107H55.431l-1.764-2.986c-3.482-5.895-14.426-10.116-20.903-8.062m-.309 13.503c-1.798 1.797-2.455 3.538-2.455 6.5 0 5.171 2.679 8.045 7.5 8.045s7.5-2.874 7.5-8.045c0-4.817-3.466-8.955-7.5-8.955-1.425 0-3.695 1.105-5.045 2.455m182.909-1.285c-4.616 2.235-5.665 9.206-2.022 13.441 4.633 5.387 12.091 2.656 13.313-4.874.509-3.137.168-4.068-2.455-6.691-3.177-3.177-5.243-3.616-8.836-1.876M56.607 121.582c-.968 2.522-.702 19.633.396 25.532 2.321 12.463 3.973 13.456 21.997 13.227 9.171-.117 13.943-.65 17.918-2 8.938-3.037 10.601-6.808 11.723-26.591l.666-11.75H83.261c-22.829 0-26.122.195-26.654 1.582m90.866 10.168c1.211 21.249 3.917 26.068 15.802 28.137 8.651 1.507 26.568 1.41 29.725-.16 4.906-2.439 6.373-7.698 6.829-24.477l.414-15.25h-53.44l.67 11.75m-77.884 85.327c-2.524 3-2.589 3.438-2.589 17.549 0 15.933 1.028 19.841 5.514 20.967 1.772.445 7.65-1.474 20.637-6.736 13.504-5.471 18.278-7.012 18.62-6.01.924 2.705 6.782 8.486 9.931 9.802 4.561 1.906 9.736 1.678 14.254-.626 3.748-1.912 8.044-6.68 8.044-8.927 0-.603.22-1.096.488-1.096s8.374 3.15 18.012 7 18.817 7 20.397 7c5.262 0 6.103-2.864 6.103-20.776 0-14.566-.165-16.024-2.039-18.035-1.121-1.204-3.056-2.189-4.298-2.189-1.243 0-10.091 3.15-19.663 7-9.572 3.85-17.652 7-17.957 7-.305 0-1.164-1.376-1.909-3.058-1.563-3.533-7.232-7.612-11.865-8.538-6.892-1.379-14.175 2.104-18.184 8.697l-1.633 2.685-18.45-7.393C82.855 217.327 74.018 214 73.365 214c-.653 0-2.352 1.385-3.776 3.077M122 232c-3.263 3.263-1.993 7.109 2.911 8.819 5.249 1.83 11.089-1.023 11.089-5.417 0-5.032-9.952-7.45-14-3.402" fill="#1976D2" fill-rule="evenodd"/><path fill-opacity=".543" d="M46.78 1.03c-7.993 1.347-15.45 5.452-22.154 12.196-8.097 8.146-10.154 13.927-10.061 28.274.086 13.191 2.488 19.6 10.324 27.555 7.784 7.902 14.176 10.284 27.611 10.291 20.094.01 45.568-9.403 72.834-26.915 10.343-6.644 13.274-7.617 14.365-4.773 1.015 2.646-1.539 13.139-5.404 22.197-1.96 4.595-3.783 10.298-4.051 12.674-.414 3.669-.099 4.707 2.089 6.895 7.247 7.247 26.418-1.256 33.11-14.685 1.86-3.732 2.557-6.715 2.557-10.935 0-4.195.373-5.804 1.345-5.804.74 0 4.12 1.793 7.511 3.985 9.564 6.182 13.72 8.015 18.17 8.015 7.729 0 11.917-3.889 11.952-11.1.041-8.566-6.679-14.953-21.285-20.233C178.207 35.961 175 33.632 175 30.902c0-3.293 3.91-4.902 11.909-4.902 14.354 0 30.109 5.705 36.001 13.038 8.708 10.835 19.09 10.537 19.09-.549 0-13.229-13.431-25.332-35.703-32.172-7.968-2.447-10.305-2.705-24.797-2.737-14.907-.032-16.531.152-23.78 2.696-8.986 3.153-42.836 18-66.513 29.173C71.608 44.697 65.186 47 58.991 47c-4.862 0-10.175-2.683-12.397-6.261-1.566-2.521 1.803-8.323 7.222-12.442 6.36-4.832 14.172-6.844 21.684-5.583 9.102 1.528 12.455-.214 12.485-6.486.022-4.723-6.513-11.534-13.616-14.191C68.573-.132 56.329-.578 46.78 1.03m-2.494 7.421c-6.167 1.927-12.458 5.89-16.563 10.434-9.502 10.518-9.017 34.142.927 45.149 14.89 16.482 52.582 9.347 94.585-17.904 11.767-7.635 16.279-8.707 20.189-4.797 4.865 4.865 3.4 16.316-4.362 34.111-2.612 5.985-2.416 9.934.511 10.352 3.576.512 14.533-5.913 18.132-10.631 3.03-3.973 3.295-4.906 3.295-11.608 0-5.952.396-7.79 2.159-10.032 3.13-3.98 7.668-3.046 18.552 3.816 10.455 6.592 13.358 7.499 16.796 5.246 3.001-1.966 3.132-4.027.525-8.302-2.073-3.401-7.294-6.403-17.854-10.269C172.594 40.875 169 37.18 169 31.5c0-9.033 7.614-13.291 21.801-12.192 15.234 1.18 30.464 7.648 37.335 15.854 6.423 7.672 9.985 6.091 5.998-2.662-4.864-10.68-22.408-19.732-43.749-22.572-10.644-1.416-23.117-.064-33.31 3.613-7.086 2.556-44.449 19.095-69.813 30.904-22.543 10.495-31.266 11.708-40.344 5.612-5.093-3.421-6.835-6.296-6.883-11.357-.045-4.881 1.842-8.453 6.864-12.99 8.57-7.742 20.132-11.54 29.208-9.594 2.767.594 5.231.879 5.476.634.932-.932-3.937-5.89-7.638-7.778-3.172-1.618-5.8-1.96-14.655-1.905-5.935.037-12.686.659-15.004 1.384M29.5 97.573c-18.171 9.45-13.297 37.236 6.627 37.78 6.061.166 6.694.849 6.803 7.348.177 10.609 3.725 20.033 9.425 25.038 5.498 4.826 9.57 5.768 24.645 5.699 33.134-.151 43.033-8.175 44.875-36.374l.625-9.564 5.75-.3 5.75-.3.008 6.3c.037 31.529 12.051 41.649 48.219 40.619 11.137-.317 13.917-.719 17.273-2.501 8.391-4.455 11.927-11.203 13.606-25.974l1.128-9.915 3.312.387c8.259.964 17.472-5.63 19.996-14.312 4.86-16.719-11.722-30.92-27.298-23.38-2.414 1.168-5.368 3.638-6.566 5.488l-2.178 3.363-73 .013-73 .012-2.795-3.502c-5.477-6.866-16.155-9.592-23.205-5.925m3.413 10.709c-4.694 3.604-4.817 11.076-.241 14.675 3.423 2.692 6.591 2.581 10-.351 5.751-4.947 2.249-15.65-5.096-15.574-1.692.017-3.79.58-4.663 1.25m180.542 1.173c-3.516 3.515-3.425 9.742.191 13.093 2.911 2.697 5.345 3.059 8.67 1.289 3.361-1.791 4.617-3.987 4.652-8.132.041-4.837-3.5-8.705-7.968-8.705-1.948 0-3.998.907-5.545 2.455M55.888 122.75c-.741 1.92-.757 6.554-.052 15.348 1.761 21.959 3.453 23.509 24.664 22.591 7.15-.31 14.714-1.125 16.81-1.812 8.527-2.796 11.69-10.835 11.69-29.709V120H56.95l-1.062 2.75m91.423 10c.337 7.012 1.125 14.524 1.751 16.692 2.58 8.938 9.916 11.819 30.481 11.97 14.55.106 16.605-.804 18.847-8.353 1.762-5.935 3.14-24.423 2.195-29.46l-.676-3.599h-53.211l.613 12.75m-78.038 84.956c-1.501 2.291-1.773 5.039-1.773 17.919 0 14.725.078 15.297 2.424 17.794 1.334 1.42 2.957 2.581 3.608 2.581.651 0 9.454-3.392 19.563-7.539 10.108-4.146 18.528-7.093 18.709-6.548 1.164 3.491 5.379 7.925 9.459 9.949 6.922 3.434 12.732 2.417 18.314-3.207 2.268-2.285 4.341-4.828 4.606-5.652.387-1.202 4.061-.071 18.68 5.75 10.008 3.986 19.051 7.247 20.095 7.247 1.043 0 2.83-1.186 3.969-2.635 1.891-2.404 2.073-3.971 2.073-17.865 0-13.894-.182-15.461-2.073-17.865-1.139-1.449-2.849-2.635-3.798-2.635-.949 0-9.557 3.15-19.129 7-9.572 3.85-17.957 7-18.634 7-.677 0-1.508-.872-1.846-1.938-.966-3.044-7.099-7.871-11.507-9.058-7.07-1.904-14.297 1.449-19.041 8.835l-1.502 2.339-17.747-7.089C83.962 218.19 74.867 215 73.511 215c-1.576 0-3.104.976-4.238 2.706M125 229.709c-2.819 1.037-5 3.599-5 5.873 0 2.768 4.371 6.418 7.685 6.418 3.393 0 8.058-2.614 8.792-4.926 1.488-4.69-5.885-9.421-11.477-7.365" fill="#1976D2" fill-rule="evenodd"/><path fill-opacity=".42" d="M50 1.06C35.644 2.83 21.186 12.901 17.629 23.611 10.2 45.978 16.621 66.765 33.531 75.09c19.676 9.686 54.217.92 92.449-23.464 5.765-3.676 11.165-6.546 12-6.377 1.182.239 1.502 1.747 1.44 6.779-.064 5.171-.931 8.583-4.312 16.972-6.781 16.822-5.455 22.575 5.172 22.428 6.242-.086 12.018-2.818 18.404-8.704 6.313-5.82 8.499-10.563 8.439-18.317-.026-3.484.404-6.615.957-6.956.553-.342 5.148 1.88 10.212 4.938 5.065 3.058 10.682 6.069 12.483 6.692 6.759 2.337 14.638-1.436 15.787-7.559 1.597-8.512-5.182-16.318-18.638-21.464C176.553 35.709 175 34.611 175 30.926c0-2.51.593-3.276 3.468-4.477 4.393-1.836 10.547-1.84 19.217-.013 12.448 2.623 18.298 5.438 24.464 11.776 6.521 6.702 11.491 9.255 15.242 7.829 4.789-1.82 5.716-6.437 2.933-14.604-5.967-17.513-40.338-31.284-68.669-27.514-13.866 1.845-17.165 3.181-91.864 37.203-17.062 7.771-24.041 8.398-31.156 2.802-5.015-3.945-2.264-11.436 6.143-16.728 7.328-4.611 11.387-5.543 20.82-4.777 7.654.621 8.474.505 10.458-1.479 4.359-4.359-.279-12.949-9.402-17.412C70.382.463 61.517-.359 50 1.06m-2.298 5.982C38.897 8.521 28.554 15.414 24.508 22.5c-5.668 9.927-5.856 24.289-.46 35.249 8.133 16.521 26.874 20.135 55.468 10.697 11.413-3.768 30.307-13.144 42.257-20.969 7.685-5.033 11.406-6.856 14.774-7.235 11.161-1.258 12.299 9.698 3.319 31.971-2.195 5.444-3.847 10.661-3.67 11.593.899 4.752 12.95.853 19.994-6.47 4.626-4.808 5.81-7.931 5.81-15.319 0-7.192.619-8.922 3.599-10.055 3.186-1.211 7.334.356 16.649 6.291 11.47 7.308 18.752 7.581 18.752.701 0-5.554-6.043-10.425-18.704-15.077-11.561-4.248-15.53-9.97-12.019-17.331 2.269-4.759 6.9-6.546 16.964-6.546 16.341 0 31.408 5.728 40.527 15.408 6.133 6.51 8.232 7.094 8.232 2.288 0-4.062-4.406-11.253-9.072-14.806-5.347-4.071-15.089-8.655-23.629-11.12-10.483-3.025-32.604-3.248-41.799-.421-6.297 1.937-48.099 20.231-69.572 30.448-24.665 11.735-33.965 13.655-43.021 8.879C43.943 48.058 40 42.963 40 39.168c0-4.066 3.843-10.876 7.993-14.162 2.109-1.671 6.461-4.268 9.671-5.772 5.118-2.397 6.975-2.722 15.086-2.633 5.088.056 9.25-.181 9.25-.527 0-1.999-3.936-5.601-8.382-7.671C69.471 6.472 66.982 6.04 60.5 6.127c-4.4.06-10.159.471-12.798.915M31.5 97.169c-4.901 1.823-8.426 4.765-10.439 8.712-4.239 8.309-3.461 16.316 2.215 22.781 3.965 4.516 8.189 6.338 14.692 6.338H43l.017 4.75c.027 7.166 2.613 17.943 5.481 22.837 1.588 2.709 4.343 5.411 7.279 7.136 4.408 2.592 5.607 2.8 17.996 3.126 26.359.692 38.433-3.991 44.251-17.164 1.41-3.192 2.511-8.84 3.266-16.75L122.429 127h11.4l.617 7.75c1.828 22.955 6.424 31.338 19.685 35.907 10.865 3.743 35.448 4.27 43.369.929 9.437-3.981 14.252-12.781 15.228-27.836l.568-8.75h5.392c10.434 0 18.111-6.853 19.09-17.043 1.512-15.736-14.079-26.541-27.948-19.369-1.507.779-4.185 3.215-5.952 5.414L200.665 108H55.266l-2.544-3.844c-4.17-6.301-14.195-9.602-21.222-6.987m2.857 9.801c-8.514 3.521-6.212 18.086 2.845 17.998 3.673-.035 5.898-1.391 7.635-4.652 3.916-7.353-3.166-16.371-10.48-13.346m181.063.175c-8.154 3.956-5.665 17.855 3.199 17.855 5.107 0 8.836-3.796 8.836-8.996 0-3.484-.559-4.708-3.244-7.106-3.401-3.04-5.342-3.427-8.791-1.753m-159.445 14.42c-2.252 5.924-.413 29.193 2.728 34.509 2.68 4.537 5.672 5.185 22.019 4.769 13.474-.343 15.175-.595 19.278-2.86 6.484-3.578 8.065-7.486 9.298-22.979.557-7.012.733-13.481.389-14.376-.554-1.446-3.534-1.628-26.68-1.628H56.95l-.975 2.565m90.967-1.815c-.033.412-.007 5.686.057 11.72.201 18.908 2.606 24.668 11.779 28.208 3.806 1.468 7.6 1.822 19.549 1.822h14.828l2.798-3.127c2-2.234 3.12-4.969 3.923-9.582 1.193-6.852 1.536-25.554.517-28.209-.532-1.387-3.856-1.582-27-1.582-14.516 0-26.419.338-26.451.75M71.4 215.765c-2.757 1.841-3.4 5.615-3.4 19.947 0 16.062.887 19.285 5.307 19.291 1.206.001 10.264-3.23 20.128-7.181 16.664-6.674 18.01-7.054 19-5.368 4.232 7.209 9.226 10.546 15.781 10.546 6.747 0 13.959-5.025 16-11.148.199-.598 8.444 2.245 19.126 6.597 12.449 5.071 19.46 7.431 20.808 7.003 3.607-1.144 4.851-6.336 4.835-20.17-.015-13.309-.757-16.431-4.489-18.882-1.764-1.16-4.254-.424-20.884 6.174-10.384 4.12-18.967 7.364-19.073 7.208a344.685 344.685 0 01-2.466-4.063c-3.149-5.235-8.983-8.078-15.324-7.469-5.575.536-9.214 2.835-12.586 7.954l-2.337 3.547-18.406-7.376c-18.714-7.498-20.077-7.907-22.02-6.61m50.246 15.687c-3.289 3.048-3.334 4.951-.191 8.093C126.199 244.29 137 241.479 137 235.5c0-5.952-10.354-8.682-15.354-4.048" fill="#1976D2" fill-rule="evenodd"/></svg>